<svg xmlns="http://www.w3.org/2000/svg" width="281" height="128.644" viewBox="0 0 281 128.644">
  <g id="Group_824" data-name="Group 824" transform="translate(0 -0.338)">
    <text id="Spotlight_Experience" data-name="Spotlight 
Experience" transform="translate(0 52.938)" font-size="39" font-family="RocGrotesk-WideBold, Roc Grotesk" font-weight="700" letter-spacing="0.03em"><tspan x="0" y="0">Spotlight </tspan><tspan x="0" y="41">Experience</tspan></text>
    <g id="Logo" transform="translate(0.899 0.338)">
      <g id="Group_523" data-name="Group 523" transform="translate(63.751 115.537)">
        <path id="Path_1510" data-name="Path 1510" d="M345.95,450.658a4.166,4.166,0,0,1,4.325-4.5c1.841,0,2.967.751,3.288,1.912h.018v-5.326h1.43v12.385h-1.43c.054-.786.072-1.573.089-2.359h-.036a3.208,3.208,0,0,1-3.485,2.5C347.594,455.269,345.95,453.41,345.95,450.658Zm7.631.161v-.447a2.859,2.859,0,0,0-3.181-2.931,3.272,3.272,0,1,0,3.181,3.378Z" transform="translate(-345.95 -442.741)"/>
        <path id="Path_1511" data-name="Path 1511" d="M423.055,446.828h1.537v1.805h-1.537Zm.054,2.931h1.43v8.829h-1.43Z" transform="translate(-411.258 -446.203)"/>
        <path id="Path_1512" data-name="Path 1512" d="M448.414,471.074h1.322c0,1.179.715,1.876,2.556,1.876,1.823,0,2.7-.554,2.7-1.5a.913.913,0,0,0-.554-.912,9.709,9.709,0,0,0-2.431-.411,5.9,5.9,0,0,1-2.86-.7,2.042,2.042,0,0,1-.733-1.644c0-1.662,1.519-2.734,3.878-2.734,2.645,0,3.753,1.162,3.753,3.146h-1.323c-.018-1.323-.8-1.93-2.377-1.93-1.519,0-2.5.554-2.5,1.43a.943.943,0,0,0,.572,1,11.5,11.5,0,0,0,2.466.411,6.674,6.674,0,0,1,2.663.608,1.907,1.907,0,0,1,.876,1.68c0,1.734-1.43,2.77-4.11,2.77C449.343,474.166,448.414,472.772,448.414,471.074Z" transform="translate(-432.737 -461.637)"/>
        <path id="Path_1513" data-name="Path 1513" d="M511.751,469.261c0-2.788,1.68-4.557,4.325-4.557a3.536,3.536,0,0,1,3.878,3.682h-1.323a2.32,2.32,0,0,0-2.538-2.395c-1.769,0-2.913,1.269-2.913,3.271s1.108,3.271,2.824,3.271a2.371,2.371,0,0,0,2.663-2.359h1.323c0,2.216-1.573,3.646-4.021,3.646C513.4,473.819,511.751,472.049,511.751,469.261Z" transform="translate(-486.383 -461.344)"/>
        <path id="Path_1514" data-name="Path 1514" d="M578.943,471.436v-5.451h1.43v5.2a2.394,2.394,0,0,0,2.681,2.484c2.055,0,3.378-1.376,3.378-3.7v-3.986h1.43v8.829h-1.43c.036-.59.071-1.7.071-2.591h-.018c-.375,1.662-1.626,2.734-3.825,2.734A3.368,3.368,0,0,1,578.943,471.436Z" transform="translate(-543.295 -462.429)"/>
        <path id="Path_1515" data-name="Path 1515" d="M649.439,471.074h1.323c0,1.179.715,1.876,2.556,1.876,1.823,0,2.7-.554,2.7-1.5a.913.913,0,0,0-.554-.912,9.712,9.712,0,0,0-2.431-.411,5.9,5.9,0,0,1-2.86-.7,2.042,2.042,0,0,1-.733-1.644c0-1.662,1.519-2.734,3.878-2.734,2.645,0,3.753,1.162,3.753,3.146h-1.322c-.018-1.323-.8-1.93-2.377-1.93-1.519,0-2.5.554-2.5,1.43a.943.943,0,0,0,.572,1,11.508,11.508,0,0,0,2.466.411,6.674,6.674,0,0,1,2.663.608,1.907,1.907,0,0,1,.876,1.68c0,1.734-1.43,2.77-4.111,2.77C650.369,474.166,649.439,472.772,649.439,471.074Z" transform="translate(-603.005 -461.637)"/>
        <path id="Path_1516" data-name="Path 1516" d="M712.548,471.074h1.323c0,1.179.715,1.876,2.556,1.876,1.823,0,2.7-.554,2.7-1.5a.913.913,0,0,0-.554-.912,9.713,9.713,0,0,0-2.431-.411,5.9,5.9,0,0,1-2.859-.7,2.042,2.042,0,0,1-.733-1.644c0-1.662,1.519-2.734,3.878-2.734,2.645,0,3.753,1.162,3.753,3.146h-1.323c-.018-1.323-.8-1.93-2.377-1.93-1.519,0-2.5.554-2.5,1.43a.943.943,0,0,0,.572,1,11.507,11.507,0,0,0,2.466.411,6.673,6.673,0,0,1,2.663.608,1.907,1.907,0,0,1,.876,1.68c0,1.734-1.43,2.77-4.111,2.77C713.477,474.166,712.548,472.772,712.548,471.074Z" transform="translate(-656.458 -461.637)"/>
        <path id="Path_1517" data-name="Path 1517" d="M780.275,446.828h1.537v1.805h-1.537Zm.054,2.931h1.43v8.829h-1.43Z" transform="translate(-713.823 -446.203)"/>
        <path id="Path_1518" data-name="Path 1518" d="M876.946,465.194h1.43l-.036,2.377h.018a3.6,3.6,0,0,1,3.825-2.52c2.323,0,3.7,1.34,3.7,3.449v5.522h-1.43V468.8c0-1.5-.858-2.466-2.752-2.466a3.085,3.085,0,0,0-3.324,3.342v4.343h-1.43Z" transform="translate(-795.703 -461.637)"/>
        <path id="Path_1519" data-name="Path 1519" d="M1024.132,453.089h-.018c0,.7.036,1.573.072,2.037h-1.43V442.741h1.43v4.236c0,.357-.018,1.072-.036,1.5h.018a3.383,3.383,0,0,1,3.574-2.323c2.538,0,4.093,1.716,4.093,4.4,0,2.877-1.591,4.718-4.057,4.718C1025.776,455.269,1024.507,454.411,1024.132,453.089Zm6.273-2.5a2.83,2.83,0,0,0-2.931-3.146,3.078,3.078,0,0,0-3.288,3.288v.465c0,1.7,1.269,2.788,3.235,2.788C1029.244,453.982,1030.405,452.66,1030.405,450.587Z" transform="translate(-919.204 -442.741)"/>
        <path id="Path_1520" data-name="Path 1520" d="M1154.418,470.292l-3.324-4.307h1.841l2.609,3.467,2.556-3.467h1.7l-3.342,4.325,3.5,4.5h-1.841l-2.752-3.628-2.663,3.628h-1.751Z" transform="translate(-1027.785 -462.429)"/>
        <path id="Path_1521" data-name="Path 1521" d="M1090.917,468.641l.109.039,7.158-3.351.04-.109-3.351-7.158-.109-.04-7.158,3.351-.04.109Z" transform="translate(-974.097 -455.574)"/>
        <path id="Path_1522" data-name="Path 1522" d="M803.895,471.468l.1.068,7.961-1.36.069-.1-1.36-7.961-.1-.069-7.961,1.36-.069.1Z" transform="translate(-732.677 -459.096)"/>
      </g>
      <text id="by" transform="translate(41.567 125.31)" font-size="14" font-family="RocGrotesk-Light, Roc Grotesk" font-weight="300" letter-spacing="0.016em"><tspan x="0" y="0">by</tspan></text>
      <text id="The" transform="translate(0 13)" font-size="17" font-family="RocGrotesk-Light, Roc Grotesk" font-weight="300" letter-spacing="0.016em"><tspan x="0" y="0">The</tspan></text>
    </g>
  </g>
</svg>
